<?xml version="1.0" encoding="UTF-8" standalone="no"?>
<!-- Created with Inkscape (http://www.inkscape.org/) -->

<svg
   xmlns:dc="http://purl.org/dc/elements/1.1/"
   xmlns:cc="http://creativecommons.org/ns#"
   xmlns:rdf="http://www.w3.org/1999/02/22-rdf-syntax-ns#"
   xmlns:svg="http://www.w3.org/2000/svg"
   xmlns="http://www.w3.org/2000/svg"
   xmlns:sodipodi="http://sodipodi.sourceforge.net/DTD/sodipodi-0.dtd"
   xmlns:inkscape="http://www.inkscape.org/namespaces/inkscape"
   width="23.874765mm"
   height="23.577055mm"
   viewBox="0 0 23.874765 23.577055"
   version="1.1"
   id="svg8"
   inkscape:version="0.92.5 (2060ec1f9f, 2020-04-08)"
   sodipodi:docname="Yale-NUS College logo.svg">
  <defs
     id="defs2">
    <clipPath
       clipPathUnits="userSpaceOnUse"
       id="clipPath831">
      <path
         d="M 0,0 H 481.89 V 708.661 H 0 Z"
         id="path829"
         inkscape:connector-curvature="0" />
    </clipPath>
  </defs>
  <sodipodi:namedview
     id="base"
     pagecolor="#ffffff"
     bordercolor="#666666"
     borderopacity="1.0"
     inkscape:pageopacity="0.0"
     inkscape:pageshadow="2"
     inkscape:zoom="5.6"
     inkscape:cx="39.211616"
     inkscape:cy="33.833973"
     inkscape:document-units="mm"
     inkscape:current-layer="layer1"
     showgrid="false"
     fit-margin-top="0"
     fit-margin-left="0"
     fit-margin-right="0"
     fit-margin-bottom="0"
     inkscape:window-width="1920"
     inkscape:window-height="1017"
     inkscape:window-x="-8"
     inkscape:window-y="-8"
     inkscape:window-maximized="1" />
  <metadata
     id="metadata5">
    <rdf:RDF>
      <cc:Work
         rdf:about="">
        <dc:format>image/svg+xml</dc:format>
        <dc:type
           rdf:resource="http://purl.org/dc/dcmitype/StillImage" />
        <dc:title></dc:title>
      </cc:Work>
    </rdf:RDF>
  </metadata>
  <g
     inkscape:label="Layer 1"
     inkscape:groupmode="layer"
     id="layer1"
     transform="translate(-64.413808,-79.592427)">
    <g
       transform="matrix(0.35277777,0,0,-0.35277777,49.413627,314.71747)"
       id="g825">
      <g
         id="g827"
         clip-path="url(#clipPath831)">
        <g
           id="g833"
           transform="translate(101.9402,643.0292)">
          <path
             d="m 0,0 c -5.516,0 -8.681,3.202 -8.681,8.787 0,5.081 3.367,8.364 8.576,8.364 4.104,0 7.067,-2.378 7.733,-6.208 C 7.827,9.714 7.836,8.488 7.837,7.394 H -4.135 V 7.238 c 0,-2.744 1.599,-4.383 4.276,-4.383 1.794,0 2.894,0.796 3.358,2.431 h 4.09 C 6.851,1.923 4.096,0 0,0 m -0.316,14.295 c -2.32,0 -3.819,-1.595 -3.819,-4.064 v -0.157 h 7.601 v 0.157 c 0,2.583 -1.379,4.064 -3.782,4.064 M -31.334,0.005 c -2.575,0 -5.583,1.344 -5.583,5.125 0,5.408 5.649,5.408 9.387,5.408 h 1.81 v 1.424 c 0,1.761 -1.15,2.691 -3.324,2.691 -1.969,0 -3.058,-0.9 -3.242,-2.676 h -4.091 c 0.368,4.587 4.385,5.181 7.86,5.181 5.02,0 6.886,-1.915 6.886,-7.063 v -6.74 h 1.477 V 0.499 h -5.495 v 2.394 h -0.009 l -0.047,-0.071 c -1.353,-2.08 -3.048,-2.817 -5.629,-2.817 m 3.205,8.029 c -2.187,0 -4.698,-0.315 -4.698,-2.763 0,-1.508 0.993,-2.409 2.656,-2.409 1.279,0 2.371,0.425 3.156,1.231 0.874,0.895 1.333,2.242 1.295,3.788 l -0.004,0.153 z m 8.937,-7.541 V 3.35 h 2.166 v 17.26 h -2.288 v 2.857 h 6.659 V 3.35 h 2.289 V 0.493 Z m -28.537,22.72 V 20.09 h -3.125 l 5.043,-7.603 5.078,7.603 h -3.126 v 3.123 h 10.877 V 20.09 h -3.129 L -44.002,8.629 V 3.531 h 3.344 V 0.499 h -11.031 v 3.032 h 3.345 V 8.629 L -56.2,20.09 h -3.22 v 3.123 z"
             style="fill:#004b8d;fill-opacity:1;fill-rule:nonzero;stroke:none"
             id="path835"
             inkscape:connector-curvature="0" />
        </g>
        <g
           id="g837"
           transform="translate(103.3427,618.4094)">
          <path
             d="m 0,0 c -2.466,0 -4.726,0.582 -6.018,2.377 l 0.005,-1.919 h -3.473 v 6.913 h 3.638 c 0,-2.936 1.427,-4.718 4.762,-4.718 1.784,0 3.709,1.109 3.709,2.899 0,3.133 -2.651,3.726 -5.457,4.355 -3.222,0.718 -6.554,1.463 -6.554,6.062 0,3.747 2.613,6.076 6.821,6.076 1.809,0 4.021,-0.428 5.388,-2.301 v -0.001 1.844 H 6.294 V 15.199 H 2.648 c 0,2.537 -1.488,4.194 -4.393,4.194 -2.24,0 -3.577,-1.097 -3.577,-2.933 0,-2.249 2.385,-2.83 4.911,-3.445 C 2.994,12.185 6.854,11.244 6.854,6.306 6.854,2.594 4.035,0 0,0 m -21.759,0 c -8.831,0 -9.517,5.929 -9.517,7.747 V 18.77 h -2.183 v 2.817 h 9.72 V 18.77 h -3.097 l -0.001,-9.722 c -0.005,-1.261 -0.013,-3.609 1.475,-5.026 0.842,-0.8 2.054,-1.204 3.603,-1.204 1.373,0 2.448,0.366 3.196,1.088 1.39,1.345 1.344,3.577 1.316,4.91 -0.003,0.16 -0.006,0.309 -0.006,0.439 v 9.515 h -3.098 v 2.817 h 9.5 V 18.77 h -2.41 V 7.747 C -13.261,3.185 -16.756,0 -21.759,0 M -42.468,0.458 -50.723,17.41 V 3.276 h 2.747 V 0.458 h -9.369 v 2.818 h 2.746 V 18.77 h -2.746 v 2.817 h 8.483 L -40.501,4.695 V 18.77 h -2.745 v 2.817 h 8.755 V 18.77 h -2.134 V 0.458 Z"
             style="fill:#f89728;fill-opacity:1;fill-rule:nonzero;stroke:none"
             id="path839"
             inkscape:connector-curvature="0" />
        </g>
        <g
           id="g841"
           transform="translate(109.6901,606.8076)">
          <path
             d="m 0,0 c 0,0.62 0,1.297 -0.112,1.993 -0.376,2.162 -2.088,3.383 -4.212,3.383 -2.782,0 -4.662,-1.786 -4.662,-4.549 0,-2.933 1.635,-4.775 4.719,-4.775 2.011,0 3.74,0.865 4.155,2.989 h -2.351 c -0.243,-0.94 -0.864,-1.297 -1.729,-1.297 -1.392,0 -2.2,0.866 -2.2,2.256 z m -6.392,1.597 c 0,1.185 0.695,2.087 1.955,2.087 1.297,0 1.937,-0.826 1.937,-2.087 z M -17.349,0.808 c 0,1.392 0.583,2.745 2.163,2.745 1.56,0 2.104,-1.297 2.104,-2.65 0,-1.429 -0.601,-2.67 -2.142,-2.67 -1.411,0 -2.125,1.221 -2.125,2.575 m 7.839,4.306 h -3.496 V 3.76 h -0.038 c -0.601,0.921 -1.466,1.579 -2.876,1.579 -2.839,0 -4.024,-2.031 -4.024,-4.625 0,-2.238 1.392,-4.267 3.761,-4.267 1.523,0 2.124,0.375 2.951,1.278 v -0.997 c 0,-1.108 -0.79,-2.18 -1.899,-2.18 -0.808,0 -1.56,0.151 -1.635,1.222 h -2.726 c 0.132,-2.086 1.505,-2.914 4.099,-2.914 3.534,0 4.662,2.03 4.662,4.268 V 3.421 H -9.51 Z M -21.188,0 c 0,0.62 0,1.297 -0.113,1.993 -0.375,2.162 -2.086,3.383 -4.211,3.383 -2.782,0 -4.661,-1.786 -4.661,-4.549 0,-2.933 1.635,-4.775 4.718,-4.775 2.011,0 3.741,0.865 4.154,2.989 h -2.35 c -0.243,-0.94 -0.864,-1.297 -1.729,-1.297 -1.391,0 -2.199,0.866 -2.199,2.256 z m -6.391,1.597 c 0,1.185 0.695,2.087 1.955,2.087 1.297,0 1.936,-0.826 1.936,-2.087 z m -7.995,-5.282 h 4.943 v 1.692 h -1.221 V 9.201 h -3.722 V 7.508 h 1.222 v -9.501 h -1.222 z m -5.609,0 h 4.945 v 1.692 h -1.223 V 9.201 h -3.722 V 7.508 h 1.222 v -9.501 h -1.222 z m -5.065,9.061 c -2.762,0 -4.833,-1.729 -4.833,-4.662 0,-2.933 1.936,-4.662 4.7,-4.662 2.763,0 4.7,1.729 4.7,4.662 0,2.933 -1.803,4.662 -4.567,4.662 m -2.239,-4.662 c 0,1.391 0.508,2.876 2.106,2.876 1.598,0 2.106,-1.485 2.106,-2.876 0,-1.391 -0.508,-2.876 -2.106,-2.876 -1.598,0 -2.106,1.485 -2.106,2.876 M -52.15,8.61 h -2.351 V 7.181 l -0.037,0.038 c -0.828,1.241 -2.049,1.655 -3.515,1.655 -3.93,0 -5.867,-2.745 -5.867,-6.506 0,-3.571 2.087,-6.316 6.412,-6.316 2.425,0 5.339,1.072 5.395,4.511 h -2.5 c -0.056,-1.616 -1.279,-2.725 -2.802,-2.725 -2.613,0 -3.76,1.955 -3.76,4.324 0,2.444 0.809,4.925 3.573,4.925 1.824,0 3.082,-1.165 3.101,-3.026 h 2.351 z"
             style="fill:#004b8d;fill-opacity:1;fill-rule:nonzero;stroke:none"
             id="path843"
             inkscape:connector-curvature="0" />
        </g>
      </g>
    </g>
  </g>
</svg>
